<svg xmlns="http://www.w3.org/2000/svg" width="121" height="121" viewBox="0 0 121 121" fill="none">
  <rect width="121" height="121" rx="20" fill="black"/>
  <path fill-rule="evenodd" clip-rule="evenodd" d="M59.2952 121H30.2952V56.1352H12.4536L31.2899 13.5545C32.8912 9.93466 36.4769 7.59999 40.4351 7.59999H62.924L41.4536 56.1352H59.2952V65.1656L45 88.9544L59.9956 97.8442L74.9908 88.9544L62.2952 67.8269V56.1352C62.2952 56.1352 62.2448 53.1352 62.144 54.1352H53.2232H44.4536L65.924 7.59999H79.6208C88.1384 7.59999 95.0432 14.5048 95.0432 23.0224V38.4448V65.9632V93.4816V121H62.2952V109.752L75 91.8064L59.9956 100.692L45 91.8064L59.2952 112.01V121ZM41 38C43.2092 38 45 36.2091 45 34C45 31.7909 43.2092 30 41 30C38.7909 30 37 31.7909 37 34C37 36.2091 38.7909 38 41 38ZM75 34C75 36.2091 73.2092 38 71 38C68.7909 38 67 36.2091 67 34C67 31.7909 68.7909 30 71 30C73.2092 30 75 31.7909 75 34Z" fill="white"/>
</svg>